<svg xmlns="http://www.w3.org/2000/svg" version="1.1" xmlns:xlink="http://www.w3.org/1999/xlink" xmlns:svgjs="http://svgjs.dev/svgjs" width="256" height="256"><svg width="256" height="256" viewBox="0 0 256 256" fill="none" xmlns="http://www.w3.org/2000/svg">
<path d="M72.2243 117.322C72.0534 117.322 71.968 117.066 71.968 116.553C71.968 116.041 72.0534 115.785 72.2243 115.785C75.4703 115.785 77.8622 115.571 79.3998 115.144C80.9374 114.717 81.9625 113.905 82.475 112.709C83.073 111.428 83.372 109.506 83.372 106.943V47.6172C83.372 45.0545 83.073 43.1752 82.475 41.9793C81.9625 40.7833 80.9374 39.9718 79.3998 39.5447C77.9476 39.0322 75.5985 38.7759 72.3524 38.7759C72.1816 38.7759 72.0961 38.5196 72.0961 38.0071C72.0961 37.4946 72.1816 37.2383 72.3524 37.2383H123.862C124.631 37.2383 125.016 37.6227 125.016 38.3915L125.272 54.152C125.272 54.4083 125.016 54.5791 124.503 54.6645C124.076 54.6645 123.862 54.5364 123.862 54.2801C123.606 49.7527 122.239 46.2504 119.762 43.7731C117.285 41.2104 113.996 39.9291 109.896 39.9291H102.08C99.1752 39.9291 96.9969 40.1427 95.5447 40.5698C94.0925 40.9969 93.0674 41.7657 92.4695 42.8762C91.8715 43.9867 91.5725 45.6097 91.5725 47.7453V106.431C91.5725 109.164 91.9142 111.172 92.5976 112.453C93.3664 113.649 94.8186 114.503 96.9542 115.016C99.1752 115.528 102.592 115.785 107.205 115.785C107.461 115.785 107.589 116.041 107.589 116.553C107.589 117.066 107.461 117.322 107.205 117.322C103.703 117.322 100.969 117.279 99.0043 117.194L87.4722 117.066L78.7591 117.194C77.2215 117.279 75.0432 117.322 72.2243 117.322ZM117.328 89.0045C117.328 85.2459 116.302 82.5551 114.252 80.932C112.288 79.309 108.956 78.4975 104.258 78.4975H87.7285V75.8067H104.642C109.17 75.8067 112.373 75.1233 114.252 73.7565C116.217 72.3043 117.199 69.9979 117.199 66.8373C117.199 66.6664 117.456 66.581 117.968 66.581C118.481 66.581 118.737 66.6664 118.737 66.8373L118.609 77.2162C118.609 79.6934 118.652 81.5727 118.737 82.8541L118.865 89.0045C118.865 89.1753 118.609 89.2608 118.096 89.2608C117.584 89.2608 117.328 89.1753 117.328 89.0045Z" fill="black"></path>
<path d="M130.952 218.762C130.782 218.762 130.696 218.505 130.696 217.993C130.696 217.48 130.782 217.224 130.952 217.224C134.199 217.224 136.59 217.011 138.128 216.583C139.666 216.156 140.691 215.345 141.203 214.149C141.801 212.868 142.1 210.946 142.1 208.383V149.057C142.1 146.494 141.801 144.615 141.203 143.419C140.691 142.223 139.666 141.411 138.128 140.984C136.676 140.472 134.327 140.215 131.081 140.215C130.91 140.215 130.824 139.959 130.824 139.447C130.824 138.934 130.91 138.678 131.081 138.678H182.591C183.359 138.678 183.744 139.062 183.744 139.831L184 155.592C184 155.848 183.744 156.019 183.231 156.104C182.804 156.104 182.591 155.976 182.591 155.72C182.334 151.192 180.968 147.69 178.49 145.213C176.013 142.65 172.724 141.369 168.624 141.369H160.808C157.903 141.369 155.725 141.582 154.273 142.009C152.821 142.436 151.796 143.205 151.198 144.316C150.6 145.426 150.301 147.049 150.301 149.185V207.87C150.301 210.604 150.642 212.611 151.326 213.893C152.095 215.089 153.547 215.943 155.682 216.455C157.903 216.968 161.32 217.224 165.933 217.224C166.189 217.224 166.318 217.48 166.318 217.993C166.318 218.505 166.189 218.762 165.933 218.762C162.431 218.762 159.697 218.719 157.733 218.634L146.2 218.505L137.487 218.634C135.95 218.719 133.771 218.762 130.952 218.762ZM176.056 190.444C176.056 186.685 175.031 183.995 172.98 182.372C171.016 180.749 167.684 179.937 162.986 179.937H146.457V177.246H163.37C167.898 177.246 171.101 176.563 172.98 175.196C174.945 173.744 175.928 171.437 175.928 168.277C175.928 168.106 176.184 168.021 176.696 168.021C177.209 168.021 177.465 168.106 177.465 168.277L177.337 178.656C177.337 181.133 177.38 183.012 177.465 184.294L177.593 190.444C177.593 190.615 177.337 190.7 176.825 190.7C176.312 190.7 176.056 190.615 176.056 190.444Z" fill="black"></path>
<line x1="163.223" y1="67.8685" x2="76.5902" y2="189.868" stroke="black" stroke-width="3"></line>
</svg><style>@media (prefers-color-scheme: light) { :root { filter: none; } }
@media (prefers-color-scheme: dark) { :root { filter: none; } }
</style></svg>