<?xml version="1.0" standalone="no"?>
<!DOCTYPE svg PUBLIC "-//W3C//DTD SVG 20010904//EN"
 "http://www.w3.org/TR/2001/REC-SVG-20010904/DTD/svg10.dtd">
<svg version="1.0" xmlns="http://www.w3.org/2000/svg"
 width="128.000000pt" height="128.000000pt" viewBox="0 0 128.000000 128.000000"
 preserveAspectRatio="xMidYMid meet">
<metadata>
Created by potrace 1.14, written by Peter Selinger 2001-2017
</metadata>
<g transform="translate(0.000000,128.000000) scale(0.100000,-0.100000)"
fill="#000000" stroke="none">
<path d="M297 1211 c19 -18 20 -29 19 -309 -1 -180 -5 -295 -11 -301 -5 -5
-26 -13 -45 -16 -58 -10 -47 -15 36 -15 50 0 74 4 65 9 -12 8 -12 14 0 43 8
20 14 73 15 138 1 58 2 112 3 121 1 14 13 16 80 14 92 -3 120 -15 128 -55 10
-52 18 -24 16 57 -2 103 -2 103 -18 66 -16 -37 -41 -46 -119 -45 -102 1 -92
-15 -91 137 1 94 5 139 13 147 8 8 45 14 94 16 108 3 151 -22 164 -96 7 -39
13 -16 11 42 l-2 66 -189 0 c-187 0 -189 0 -169 -19z"/>
<path d="M839 959 c-46 -66 -88 -128 -94 -137 -5 -9 -13 -19 -16 -22 -3 -3
-32 -43 -65 -90 -32 -47 -134 -193 -227 -325 -93 -132 -172 -247 -175 -255
-11 -32 39 28 117 140 44 63 83 120 88 125 5 6 49 68 99 140 98 139 113 162
272 387 56 81 102 149 102 152 0 22 -27 -9 -101 -115z"/>
<path d="M850 710 c8 -5 36 -10 62 -10 26 0 57 -4 71 -9 26 -10 55 -49 60 -80
8 -50 16 -27 14 35 l-3 69 -109 3 c-75 1 -105 -1 -95 -8z"/>
<path d="M719 518 c0 -2 -1 -98 -2 -215 -1 -141 -6 -216 -13 -223 -11 -11 -34
-18 -66 -19 -10 -1 -18 -5 -18 -10 0 -5 65 -9 145 -9 132 -1 171 6 130 22 -8
3 -15 0 -15 -7 0 -7 -3 -8 -8 -2 -4 6 -20 12 -37 13 -54 6 -59 18 -60 166 -1
87 3 137 9 139 24 8 153 -1 174 -12 13 -7 25 -25 29 -42 10 -54 18 -30 16 53
-2 109 -2 108 -18 70 -17 -39 -30 -45 -103 -45 -115 1 -109 -2 -107 44 1 34
-3 43 -27 60 -15 11 -28 19 -29 17z"/>
</g>
</svg>
